<svg aria-hidden="true" style="position: absolute; width: 0; height: 0; overflow: hidden;" version="1.1" xmlns="http://www.w3.org/2000/svg" xmlns:xlink="http://www.w3.org/1999/xlink">
  <defs>
  <symbol id="cart" viewBox="0 0 30 30">
    <path d="M15 21.27q0.996 0 1.758-0.762t0.762-1.758-0.762-1.758-1.758-0.762-1.758 0.762-0.762 1.758 0.762 1.758 1.758 0.762zM11.25 11.25h7.5l-3.75-5.508zM21.504 11.25h5.977q0.527 0 0.908 0.352t0.381 0.879q-0.586 2.344-1.758 6.592t-1.465 5.361q-0.527 1.816-2.402 1.816h-16.289q-1.875 0-2.402-1.816l-3.164-11.602q-0.059-0.117-0.059-0.352 0-0.527 0.381-0.879t0.908-0.352h5.977l5.449-8.203q0.352-0.527 1.055-0.527 0.762 0 1.055 0.527z"/>
  </symbol>
  <symbol id="menu" viewBox="0 0 30 30">
    <path d="M3.75 7.5h22.5v2.52h-22.5v-2.52zM3.75 16.23v-2.461h22.5v2.461h-22.5zM3.75 22.5v-2.52h22.5v2.52h-22.5z"/>
  </symbol>
  </defs>
</svg>
